<svg width="24" height="24" viewBox="0 0 24 24" fill="none" xmlns="http://www.w3.org/2000/svg">
  <path d="M15.5 12C15.5 13.933 13.933 15.5 12 15.5C10.067 15.5 8.5 13.933 8.5 12C8.5 10.067 10.067 8.5 12 8.5C13.933 8.5 15.5 10.067 15.5 12Z" fill="#3B82F6"/>
  <path d="M6 12C6 12.355 6.29 12.645
    6.645 12.645C7 12.645 7.29 12.355 7.29 12C7.29 9.236 9.536 7 12.3 7C15.064 7 17.3 9.236 17.3 12C17.3 14.764 15.064 17 12.3 17C11.945 17 11.655 17.29 11.655 17.645C11.655 18 11.945 18.29 12.3 18.29C15.773 18.29 18.59 15.473 18.59 12C18.59 8.527 15.773 5.71 12.3 5.71C8.827 5.71 6 8.527 6 12Z" fill="#2563EB"/>
  <path d="M2 12C2 12.355 2.29 12.645 2.645 12.645C3 12.645 3.29 12.355 3.29 12C3.29 6.818 7.527 2.59 12.7 2.59C17.873 2.59 22.1 6.818 22.1 12C22.1 17.182 17.873 21.41 12.7 21.41C12.345 21.41 12.055 21.7 12.055 22.055C12.055 22.41 12.345 22.7 12.7 22.7C18.582 22.7 23.39 17.882 23.39 12C23.39 6.118 18.582 1.3 12.7 1.3C6.818 1.3 2 6.118 2 12Z" fill="#1D4ED8"/>
</svg>